<svg xmlns="http://www.w3.org/2000/svg" xmlns:xlink="http://www.w3.org/1999/xlink" viewBox="0 0 1240 80" width="1240" height="80" preserveAspectRatio="xMidYMid meet" style="width: 100%; height: 100%; transform: translate3d(0px, 0px, 0px); content-visibility: visible;"><defs><clipPath id="__lottie_element_3"><rect width="1240" height="80" x="0" y="0"></rect></clipPath></defs><g clip-path="url(#__lottie_element_3)"><g transform="matrix(2.3326098918914795,0,0,2.3326098918914795,-1659.306640625,-1221.609375)" opacity="1" style="display: block;"><g opacity="1" transform="matrix(1,0,0,1,744.7000122070312,540.7899780273438)"><path fill="rgb(26,26,26)" fill-opacity="1" d=" M28.690000534057617,7.019999980926514 C28.690000534057617,11.789999961853027 25.43000030517578,16.290000915527344 16.440000534057617,16.290000915527344 C16.440000534057617,16.290000915527344 -28.700000762939453,16.290000915527344 -28.700000762939453,16.290000915527344 C-28.700000762939453,16.290000915527344 -28.700000762939453,-16.290000915527344 -28.700000762939453,-16.290000915527344 C-28.700000762939453,-16.290000915527344 16.260000228881836,-16.290000915527344 16.260000228881836,-16.290000915527344 C24.34000015258789,-16.290000915527344 27.8700008392334,-12.710000038146973 27.8700008392334,-8.029999732971191 C27.8700008392334,-4.730000019073486 25.850000381469727,-1.7400000095367432 21.450000762939453,-0.8299999833106995 C26.40999984741211,-0.10000000149011612 28.700000762939453,2.75 28.700000762939453,7.019999980926514 C28.700000762939453,7.019999980926514 28.690000534057617,7.019999980926514 28.690000534057617,7.019999980926514z M-19.43000030517578,-3.119999885559082 C-19.43000030517578,-3.119999885559082 13.6899995803833,-3.119999885559082 13.6899995803833,-3.119999885559082 C17.5,-3.119999885559082 18.280000686645508,-5.050000190734863 18.280000686645508,-6.880000114440918 C18.280000686645508,-8.489999771118164 17.360000610351562,-10.229999542236328 13.6899995803833,-10.229999542236328 C13.6899995803833,-10.229999542236328 -19.43000030517578,-10.229999542236328 -19.43000030517578,-10.229999542236328 C-19.43000030517578,-10.229999542236328 -19.43000030517578,-3.119999885559082 -19.43000030517578,-3.119999885559082z M19.110000610351562,6.289999961853027 C19.110000610351562,4.039999961853027 17.600000381469727,2.4800000190734863 14.149999618530273,2.4800000190734863 C14.149999618530273,2.4800000190734863 -19.43000030517578,2.4800000190734863 -19.43000030517578,2.4800000190734863 C-19.43000030517578,2.4800000190734863 -19.43000030517578,10.229999542236328 -19.43000030517578,10.229999542236328 C-19.43000030517578,10.229999542236328 14.109999656677246,10.229999542236328 14.109999656677246,10.229999542236328 C17.639999389648438,10.229999542236328 19.110000610351562,8.529999732971191 19.110000610351562,6.28000020980835 C19.110000610351562,6.28000020980835 19.110000610351562,6.289999961853027 19.110000610351562,6.289999961853027z"></path></g></g><g transform="matrix(2.3326098918914795,0,0,2.3326098918914795,-1659.3056640625,-1221.609375)" opacity="1" style="display: block;"><g opacity="1" transform="matrix(1,0,0,1,973.2449951171875,540.7899780273438)"><path fill="rgb(26,26,26)" fill-opacity="1" d=" M27.7450008392334,-5.449999809265137 C27.7450008392334,1.5199999809265137 22.334999084472656,5.96999979019165 13.9350004196167,5.96999979019165 C13.9350004196167,5.96999979019165 -19.975000381469727,5.96999979019165 -19.975000381469727,5.96999979019165 C-19.975000381469727,5.96999979019165 -19.975000381469727,16.290000915527344 -19.975000381469727,16.290000915527344 C-19.975000381469727,16.290000915527344 -29.2450008392334,16.290000915527344 -29.2450008392334,16.290000915527344 C-29.2450008392334,16.290000915527344 -29.2450008392334,-16.290000915527344 -29.2450008392334,-16.290000915527344 C-29.2450008392334,-16.290000915527344 14.154999732971191,-16.290000915527344 14.154999732971191,-16.290000915527344 C22.645000457763672,-16.290000915527344 27.733999252319336,-12.210000038146973 27.733999252319336,-5.460000038146973 C27.733999252319336,-5.460000038146973 27.7450008392334,-5.449999809265137 27.7450008392334,-5.449999809265137z M18.014999389648438,-5.21999979019165 C18.014999389648438,-8.34000015258789 15.8149995803833,-10.079999923706055 11.914999961853027,-10.079999923706055 C11.914999961853027,-10.079999923706055 -19.975000381469727,-10.079999923706055 -19.975000381469727,-10.079999923706055 C-19.975000381469727,-10.079999923706055 -19.975000381469727,-0.2199999988079071 -19.975000381469727,-0.2199999988079071 C-19.975000381469727,-0.2199999988079071 11.864999771118164,-0.2199999988079071 11.864999771118164,-0.2199999988079071 C15.765000343322754,-0.2199999988079071 18.014999389648438,-2.059999942779541 18.014999389648438,-5.21999979019165z"></path></g></g><g transform="matrix(2.3326098918914795,0,0,2.3326098918914795,-1659.30615234375,-1221.609619140625)" opacity="1" style="display: block;"><g opacity="1" transform="matrix(1,0,0,1,798.0250244140625,540.8900146484375)"><path fill="rgb(26,26,26)" fill-opacity="1" d=" M-9.175000190734863,4.769999980926514 C-9.175000190734863,4.769999980926514 -9.175000190734863,16.290000915527344 -9.175000190734863,16.290000915527344 C-9.175000190734863,16.290000915527344 -18.44499969482422,16.290000915527344 -18.44499969482422,16.290000915527344 C-18.44499969482422,16.290000915527344 -18.44499969482422,-16.290000915527344 -18.44499969482422,-16.290000915527344 C-18.44499969482422,-16.290000915527344 3.765000104904175,-16.290000915527344 3.765000104904175,-16.290000915527344 C14.225000381469727,-16.290000915527344 17.2549991607666,-10.920000076293945 17.2549991607666,-5.96999979019165 C17.2549991607666,-2.3499999046325684 15.414999961853027,1.9199999570846558 9.914999961853027,3.6700000762939453 C9.914999961853027,3.6700000762939453 18.44499969482422,16.290000915527344 18.44499969482422,16.290000915527344 C18.44499969482422,16.290000915527344 8.024999618530273,16.290000915527344 8.024999618530273,16.290000915527344 C8.024999618530273,16.290000915527344 0.3149999976158142,4.769999980926514 0.3149999976158142,4.769999980926514 C0.3149999976158142,4.769999980926514 -9.1850004196167,4.769999980926514 -9.1850004196167,4.769999980926514 C-9.1850004196167,4.769999980926514 -9.175000190734863,4.769999980926514 -9.175000190734863,4.769999980926514z M1.6549999713897705,-1.149999976158142 C6.15500020980835,-1.149999976158142 7.485000133514404,-3.4000000953674316 7.485000133514404,-5.690000057220459 C7.485000133514404,-7.980000019073486 6.15500020980835,-10.09000015258789 1.7050000429153442,-10.09000015258789 C1.7050000429153442,-10.09000015258789 -9.164999961853027,-10.09000015258789 -9.164999961853027,-10.09000015258789 C-9.164999961853027,-10.09000015258789 -9.164999961853027,-1.1399999856948853 -9.164999961853027,-1.1399999856948853 C-9.164999961853027,-1.1399999856948853 1.6649999618530273,-1.1399999856948853 1.6649999618530273,-1.1399999856948853 C1.6649999618530273,-1.1399999856948853 1.6549999713897705,-1.149999976158142 1.6549999713897705,-1.149999976158142z"></path></g></g><g transform="matrix(2.3326098918914795,0,0,2.3326098918914795,-1659.3056640625,-1221.609619140625)" opacity="1" style="display: block;"><g opacity="1" transform="matrix(1,0,0,1,878.0700073242188,540.8900146484375)"><path fill="rgb(26,26,26)" fill-opacity="1" d=" M-11.399999618530273,-16.290000915527344 C-11.399999618530273,-16.290000915527344 -1.1699999570846558,5.639999866485596 -1.1699999570846558,5.639999866485596 C-0.5699999928474426,6.920000076293945 -0.30000001192092896,7.889999866485596 -0.07000000029802322,8.899999618530273 C-0.07000000029802322,8.899999618530273 0.07000000029802322,8.899999618530273 0.07000000029802322,8.899999618530273 C0.30000001192092896,7.889999866485596 0.6200000047683716,6.929999828338623 1.1699999570846558,5.639999866485596 C1.1699999570846558,5.639999866485596 11.399999618530273,-16.290000915527344 11.399999618530273,-16.290000915527344 C11.399999618530273,-16.290000915527344 21.68000030517578,-16.290000915527344 21.68000030517578,-16.290000915527344 C21.68000030517578,-16.290000915527344 5.579999923706055,16.290000915527344 5.579999923706055,16.290000915527344 C5.579999923706055,16.290000915527344 -5.519999980926514,16.290000915527344 -5.519999980926514,16.290000915527344 C-5.519999980926514,16.290000915527344 -21.68000030517578,-16.290000915527344 -21.68000030517578,-16.290000915527344 C-21.68000030517578,-16.290000915527344 -11.399999618530273,-16.290000915527344 -11.399999618530273,-16.290000915527344z"></path></g></g><g transform="matrix(2.3326098918914795,0,0,2.3326098918914795,-1310.2066650390625,-1221.3992919921875)" opacity="1" style="display: block;"><g opacity="1" transform="matrix(1,0,0,1,973.2449951171875,540.7899780273438)"><path fill="rgb(26,26,26)" fill-opacity="1" d=" M8.666999816894531,-5.449999809265137 C8.666999816894531,1.5199999809265137 3.256999969482422,5.96999979019165 -5.14300012588501,5.96999979019165 C-5.14300012588501,5.96999979019165 -19.975000381469727,5.96999979019165 -19.975000381469727,5.96999979019165 C-19.975000381469727,5.96999979019165 -19.975000381469727,16.290000915527344 -19.975000381469727,16.290000915527344 C-19.975000381469727,16.290000915527344 -29.2450008392334,16.290000915527344 -29.2450008392334,16.290000915527344 C-29.2450008392334,16.290000915527344 -29.2450008392334,-16.290000915527344 -29.2450008392334,-16.290000915527344 C-29.2450008392334,-16.290000915527344 -4.922999858856201,-16.290000915527344 -4.922999858856201,-16.290000915527344 C3.566999912261963,-16.290000915527344 8.656999588012695,-12.210000038146973 8.656999588012695,-5.460000038146973 C8.656999588012695,-5.460000038146973 8.666999816894531,-5.449999809265137 8.666999816894531,-5.449999809265137z M-1.062999963760376,-5.21999979019165 C-1.062999963760376,-8.34000015258789 -3.263000011444092,-10.079999923706055 -7.163000106811523,-10.079999923706055 C-7.163000106811523,-10.079999923706055 -19.975000381469727,-10.079999923706055 -19.975000381469727,-10.079999923706055 C-19.975000381469727,-10.079999923706055 -19.975000381469727,-0.2199999988079071 -19.975000381469727,-0.2199999988079071 C-19.975000381469727,-0.2199999988079071 -7.2129998207092285,-0.2199999988079071 -7.2129998207092285,-0.2199999988079071 C-3.312999963760376,-0.2199999988079071 -1.062999963760376,-2.059999942779541 -1.062999963760376,-5.21999979019165z"></path></g></g><g transform="matrix(2.3326098918914795,0,0,2.3326098918914795,-1659.3046875,-1221.609619140625)" opacity="1" style="display: block;"><g opacity="1" transform="matrix(1,0,0,1,1150.0699462890625,540.8900146484375)"><path fill="rgb(26,26,26)" fill-opacity="1" d=" M-6.400000095367432,-16.290000915527344 C-6.400000095367432,-16.290000915527344 -6.400000095367432,9.039999961853027 -6.400000095367432,9.039999961853027 C-6.400000095367432,9.039999961853027 15.670000076293945,9.039999961853027 15.670000076293945,9.039999961853027 C15.670000076293945,9.039999961853027 15.670000076293945,16.290000915527344 15.670000076293945,16.290000915527344 C15.670000076293945,16.290000915527344 -15.670000076293945,16.290000915527344 -15.670000076293945,16.290000915527344 C-15.670000076293945,16.290000915527344 -15.670000076293945,-16.290000915527344 -15.670000076293945,-16.290000915527344 C-15.670000076293945,-16.290000915527344 -6.400000095367432,-16.290000915527344 -6.400000095367432,-16.290000915527344z"></path></g></g><g transform="matrix(2.3326098918914795,0,0,2.3326098918914795,-1659.3056640625,-1221.609619140625)" opacity="1" style="display: block;"><g opacity="1" transform="matrix(1,0,0,1,840.344970703125,540.8900146484375)"><path fill="rgb(26,26,26)" fill-opacity="1" d=" M-9.055000305175781,9.729999542236328 C-9.055000305175781,9.729999542236328 -12.085000038146973,16.290000915527344 -12.085000038146973,16.290000915527344 C-12.085000038146973,16.290000915527344 -22.045000076293945,16.290000915527344 -22.045000076293945,16.290000915527344 C-22.045000076293945,16.290000915527344 -5.755000114440918,-16.290000915527344 -5.755000114440918,-16.290000915527344 C-5.755000114440918,-16.290000915527344 5.804999828338623,-16.290000915527344 5.804999828338623,-16.290000915527344 C5.804999828338623,-16.290000915527344 22.045000076293945,16.290000915527344 22.045000076293945,16.290000915527344 C22.045000076293945,16.290000915527344 12.135000228881836,16.290000915527344 12.135000228881836,16.290000915527344 C12.135000228881836,16.290000915527344 9.104999542236328,9.729999542236328 9.104999542236328,9.729999542236328 C9.104999542236328,9.729999542236328 -9.0649995803833,9.729999542236328 -9.0649995803833,9.729999542236328 C-9.0649995803833,9.729999542236328 -9.055000305175781,9.729999542236328 -9.055000305175781,9.729999542236328z M2.184999942779541,-5.139999866485596 C1.684999942779541,-6.289999961853027 0.625,-9.039999961853027 0.07500000298023224,-10.739999771118164 C0.07500000298023224,-10.739999771118164 -0.014999999664723873,-10.739999771118164 -0.014999999664723873,-10.739999771118164 C-0.5649999976158142,-9.039999961853027 -1.625,-6.289999961853027 -2.125,-5.139999866485596 C-2.125,-5.139999866485596 -6.304999828338623,3.809999942779541 -6.304999828338623,3.809999942779541 C-6.304999828338623,3.809999942779541 6.355000019073486,3.809999942779541 6.355000019073486,3.809999942779541 C6.355000019073486,3.809999942779541 2.174999952316284,-5.139999866485596 2.174999952316284,-5.139999866485596 C2.174999952316284,-5.139999866485596 2.184999942779541,-5.139999866485596 2.184999942779541,-5.139999866485596z"></path></g></g><g transform="matrix(2.3326098918914795,0,0,2.3326098918914795,-1659.305908203125,-1221.609619140625)" opacity="1" style="display: block;"><g opacity="1" transform="matrix(1,0,0,1,920.4400024414062,540.8900146484375)"><path fill="rgb(26,26,26)" fill-opacity="1" d=" M16.610000610351562,16.290000915527344 C16.610000610351562,16.290000915527344 -16.610000610351562,16.290000915527344 -16.610000610351562,16.290000915527344 C-16.610000610351562,16.290000915527344 -16.610000610351562,-16.290000915527344 -16.610000610351562,-16.290000915527344 C-16.610000610351562,-16.290000915527344 16.290000915527344,-16.290000915527344 16.290000915527344,-16.290000915527344 C16.290000915527344,-16.290000915527344 16.290000915527344,-9.819999694824219 16.290000915527344,-9.819999694824219 C16.290000915527344,-9.819999694824219 -7.340000152587891,-9.819999694824219 -7.340000152587891,-9.819999694824219 C-7.340000152587891,-9.819999694824219 -7.340000152587891,-3.259999990463257 -7.340000152587891,-3.259999990463257 C-7.340000152587891,-3.259999990463257 15.510000228881836,-3.259999990463257 15.510000228881836,-3.259999990463257 C15.510000228881836,-3.259999990463257 15.510000228881836,2.799999952316284 15.510000228881836,2.799999952316284 C15.510000228881836,2.799999952316284 -7.340000152587891,2.799999952316284 -7.340000152587891,2.799999952316284 C-7.340000152587891,2.799999952316284 -7.340000152587891,9.819999694824219 -7.340000152587891,9.819999694824219 C-7.340000152587891,9.819999694824219 16.610000610351562,9.819999694824219 16.610000610351562,9.819999694824219 C16.610000610351562,9.819999694824219 16.610000610351562,16.290000915527344 16.610000610351562,16.290000915527344z"></path></g></g><g transform="matrix(2.3326098918914795,0,0,2.3326098918914795,-1659.305419921875,-1221.609619140625)" opacity="1" style="display: block;"><g opacity="1" transform="matrix(1,0,0,1,1024.2900390625,540.8900146484375)"><path fill="rgb(26,26,26)" fill-opacity="1" d=" M16.610000610351562,16.290000915527344 C16.610000610351562,16.290000915527344 -16.610000610351562,16.290000915527344 -16.610000610351562,16.290000915527344 C-16.610000610351562,16.290000915527344 -16.610000610351562,-16.290000915527344 -16.610000610351562,-16.290000915527344 C-16.610000610351562,-16.290000915527344 16.290000915527344,-16.290000915527344 16.290000915527344,-16.290000915527344 C16.290000915527344,-16.290000915527344 16.290000915527344,-9.819999694824219 16.290000915527344,-9.819999694824219 C16.290000915527344,-9.819999694824219 -7.340000152587891,-9.819999694824219 -7.340000152587891,-9.819999694824219 C-7.340000152587891,-9.819999694824219 -7.340000152587891,-3.259999990463257 -7.340000152587891,-3.259999990463257 C-7.340000152587891,-3.259999990463257 15.510000228881836,-3.259999990463257 15.510000228881836,-3.259999990463257 C15.510000228881836,-3.259999990463257 15.510000228881836,2.799999952316284 15.510000228881836,2.799999952316284 C15.510000228881836,2.799999952316284 -7.340000152587891,2.799999952316284 -7.340000152587891,2.799999952316284 C-7.340000152587891,2.799999952316284 -7.340000152587891,9.819999694824219 -7.340000152587891,9.819999694824219 C-7.340000152587891,9.819999694824219 16.610000610351562,9.819999694824219 16.610000610351562,9.819999694824219 C16.610000610351562,9.819999694824219 16.610000610351562,16.290000915527344 16.610000610351562,16.290000915527344z"></path></g></g><g transform="matrix(2.3326098918914795,0,0,2.3326098918914795,-1659.304931640625,-1221.6094970703125)" opacity="1" style="display: block;"><g opacity="1" transform="matrix(1,0,0,1,1066.6400146484375,540.8900146484375)"><path fill="rgb(26,26,26)" fill-opacity="1" d=" M-21.84000015258789,0 C-21.84000015258789,-10.550000190734863 -13.260000228881836,-17.389999389648438 0,-17.389999389648438 C13.260000228881836,-17.389999389648438 21.84000015258789,-10.550000190734863 21.84000015258789,0 C21.84000015258789,10.550000190734863 13.210000038146973,17.389999389648438 0,17.389999389648438 C-13.210000038146973,17.389999389648438 -21.84000015258789,10.510000228881836 -21.84000015258789,0z M12.109999656677246,0 C12.109999656677246,-6.289999961853027 7.25,-10.510000228881836 0,-10.510000228881836 C-7.25,-10.510000228881836 -12.109999656677246,-6.289999961853027 -12.109999656677246,0 C-12.109999656677246,6.289999961853027 -7.25,10.510000228881836 0,10.510000228881836 C7.25,10.510000228881836 12.109999656677246,6.289999961853027 12.109999656677246,0z"></path></g></g><g transform="matrix(2.3326098918914795,0,0,2.3326098918914795,-1659.30419921875,-1221.609619140625)" opacity="1" style="display: block;"><g opacity="1" transform="matrix(1,0,0,1,1187.800048828125,540.8900146484375)"><path fill="rgb(26,26,26)" fill-opacity="1" d=" M16.610000610351562,16.290000915527344 C16.610000610351562,16.290000915527344 -16.610000610351562,16.290000915527344 -16.610000610351562,16.290000915527344 C-16.610000610351562,16.290000915527344 -16.610000610351562,-16.290000915527344 -16.610000610351562,-16.290000915527344 C-16.610000610351562,-16.290000915527344 16.290000915527344,-16.290000915527344 16.290000915527344,-16.290000915527344 C16.290000915527344,-16.290000915527344 16.290000915527344,-9.819999694824219 16.290000915527344,-9.819999694824219 C16.290000915527344,-9.819999694824219 -7.340000152587891,-9.819999694824219 -7.340000152587891,-9.819999694824219 C-7.340000152587891,-9.819999694824219 -7.340000152587891,-3.259999990463257 -7.340000152587891,-3.259999990463257 C-7.340000152587891,-3.259999990463257 15.510000228881836,-3.259999990463257 15.510000228881836,-3.259999990463257 C15.510000228881836,-3.259999990463257 15.510000228881836,2.799999952316284 15.510000228881836,2.799999952316284 C15.510000228881836,2.799999952316284 -7.340000152587891,2.799999952316284 -7.340000152587891,2.799999952316284 C-7.340000152587891,2.799999952316284 -7.340000152587891,9.819999694824219 -7.340000152587891,9.819999694824219 C-7.340000152587891,9.819999694824219 16.610000610351562,9.819999694824219 16.610000610351562,9.819999694824219 C16.610000610351562,9.819999694824219 16.610000610351562,16.290000915527344 16.610000610351562,16.290000915527344z"></path></g></g><g transform="matrix(5.840000152587891,0,0,5.840000152587891,1198,33)" opacity="1" style="display: block;"><g opacity="1" transform="matrix(1,0,0,1,0,0)"><path fill="rgb(26,26,26)" fill-opacity="1" d=" M0.20000000298023224,4.559999942779541 C2.859999895095825,4.559999942779541 4.960000038146973,2.5 4.960000038146973,-0.2800000011920929 C4.960000038146973,-3.059999942779541 2.859999895095825,-5.119999885559082 0.20000000298023224,-5.119999885559082 C-2.4600000381469727,-5.119999885559082 -4.559999942779541,-3.059999942779541 -4.559999942779541,-0.2800000011920929 C-4.559999942779541,2.5 -2.4600000381469727,4.559999942779541 0.20000000298023224,4.559999942779541z M0.20000000298023224,3.740000009536743 C-2,3.740000009536743 -3.619999885559082,2.059999942779541 -3.619999885559082,-0.2800000011920929 C-3.619999885559082,-2.619999885559082 -2,-4.300000190734863 0.20000000298023224,-4.300000190734863 C2.4000000953674316,-4.300000190734863 4.019999980926514,-2.619999885559082 4.019999980926514,-0.2800000011920929 C4.019999980926514,2.059999942779541 2.4000000953674316,3.740000009536743 0.20000000298023224,3.740000009536743z M-0.47999998927116394,2.359999895095825 C-0.47999998927116394,2.359999895095825 -0.47999998927116394,0.47999998927116394 -0.47999998927116394,0.47999998927116394 C-0.47999998927116394,0.47999998927116394 0.019999999552965164,0.47999998927116394 0.019999999552965164,0.47999998927116394 C1.2599999904632568,0.47999998927116394 0.8199999928474426,2.119999885559082 1.0800000429153442,2.359999895095825 C1.0800000429153442,2.359999895095825 2.440000057220459,2.359999895095825 2.440000057220459,2.359999895095825 C2.440000057220459,2.359999895095825 2.440000057220459,2.299999952316284 2.440000057220459,2.299999952316284 C2.119999885559082,2.200000047683716 2.559999942779541,0.18000000715255737 1.2000000476837158,-0.03999999910593033 C1.2000000476837158,-0.03999999910593033 1.2000000476837158,-0.05999999865889549 1.2000000476837158,-0.05999999865889549 C1.8799999952316284,-0.2199999988079071 2.319999933242798,-0.6600000262260437 2.319999933242798,-1.399999976158142 C2.319999933242798,-2.4000000953674316 1.659999966621399,-2.9600000381469727 0.41999998688697815,-2.9600000381469727 C0.41999998688697815,-2.9600000381469727 -1.7999999523162842,-2.9600000381469727 -1.7999999523162842,-2.9600000381469727 C-1.7999999523162842,-2.9600000381469727 -1.7999999523162842,2.359999895095825 -1.7999999523162842,2.359999895095825 C-1.7999999523162842,2.359999895095825 -0.47999998927116394,2.359999895095825 -0.47999998927116394,2.359999895095825z M-0.47999998927116394,-0.5799999833106995 C-0.47999998927116394,-0.5799999833106995 -0.47999998927116394,-1.9600000381469727 -0.47999998927116394,-1.9600000381469727 C-0.47999998927116394,-1.9600000381469727 0.05999999865889549,-1.9600000381469727 0.05999999865889549,-1.9600000381469727 C0.6000000238418579,-1.9600000381469727 1.059999942779541,-1.8600000143051147 1.059999942779541,-1.2799999713897705 C1.059999942779541,-0.699999988079071 0.6000000238418579,-0.5799999833106995 0.05999999865889549,-0.5799999833106995 C0.05999999865889549,-0.5799999833106995 -0.47999998927116394,-0.5799999833106995 -0.47999998927116394,-0.5799999833106995z"></path></g></g></g></svg>